{"title":"Bad Boy Bubby 1993.480i.DVDRip.H.263 . NVEE","uid":9106000,"size":1415755714,"categoryP":"video","categoryS":"movies","magnet":"?xt=urn:btih:07b8d5cdbfa2622774b9a0e3d31397515c379c91&amp;dn=Bad+Boy+Bubby+1993.480i.DVDRip.H.263+.+NVEE&amp;tr=udp%3A%2F%2Ftracker.openbittorrent.com%3A80&amp;tr=udp%3A%2F%2Fopen.demonii.com%3A1337&amp;tr=udp%3A%2F%2Ftracker.coppersurfer.tk%3A6969&amp;tr=udp%3A%2F%2Fexodus.desync.com%3A6969","seeders":1,"leechers":0,"uploader":".NVEE","files":3,"time":1382874790,"description":"FULL_INFOs\n\n\n99.99% &gt;&gt;&gt; SYNCED GUARANTEED \n\n&quot;Totally scrutinized / analyzed to be a verified torrent.&quot;\n___________________________________________\n\nSource : DVD\n\nMy Media Player of Choice &quot;VLC Media Player via HDMI&quot;\n\nSpoken Language : English Only\n\nAudio : 6 ~ Channels Only\n\n\nDon't delete torrent link,... Please seed . NVEE\n_____________________________________\n\n\n &lt;a href=&quot;\nhttp://www.imdb.com/title/tt0106341/&quot; rel=&quot;nofollow&quot; target=&quot;_NEW&quot;&gt;\nhttp://www.imdb.com/title/tt0106341/&lt;/a&gt;\n\n\n\nSubs Info : MULTI_SUBS\n\n &lt;a href=&quot;\nhttp://www.subtitleseeker.com/0106341/Bad+Boy+Bubby/Subtitles/&quot; rel=&quot;nofollow&quot; target=&quot;_NEW&quot;&gt;\nhttp://www.subtitleseeker.com/0106341/Bad+Boy+Bubby/Subtitles/&lt;/a&gt;\n\n121 Subtitles In 17 Languages Use Link Provided \n &lt;a href=&quot;\nhttp://www.subtitleseeker.com/0106341/Bad+Boy+Bubby/Subtitles/&quot; rel=&quot;nofollow&quot; target=&quot;_NEW&quot;&gt;\nhttp://www.subtitleseeker.com/0106341/Bad+Boy+Bubby/Subtitles/&lt;/a&gt;\n\n121 Subtitles In 17 Languages Only @ SubtitleSeeker\n &lt;a href=&quot;\nhttp://www.subtitleseeker.com/0106341/Bad+Boy+Bubby/Subtitles/&quot; rel=&quot;nofollow&quot; target=&quot;_NEW&quot;&gt;\nhttp://www.subtitleseeker.com/0106341/Bad+Boy+Bubby/Subtitles/&lt;/a&gt;\n\n&amp; or @\n &lt;a href=&quot;\nhttp://subscene.com/subtitles/bad-boy-bubby&quot; rel=&quot;nofollow&quot; target=&quot;_NEW&quot;&gt;\nhttp://subscene.com/subtitles/bad-boy-bubby&lt;/a&gt;\n\nAll .srt subs can be turned On/Off\n\n\n &lt;a href=&quot;\nhttp://www.imdb.com/title/tt0106341/&quot; rel=&quot;nofollow&quot; target=&quot;_NEW&quot;&gt;\nhttp://www.imdb.com/title/tt0106341/&lt;/a&gt;\n\n\n\n---------------------------------------------------------------------------------\n\n\nGeneral Metadata\n\nComplete name : Bad Boy Bubby 1993.480i.DVDRip.H.263 . NVEE.divx\nFormat : AVI\nFormat/Info : Audio Video Interleave\nFile size : 1.32 GiB\nDuration : 1h 47mn\nOverall bit rate : 1 759 Kbps\n\n\nVideo\n\nID : 0\nFormat : MPEG-4 Visual\nFormat settings, BVOP : 1\nFormat settings, QPel : No\nFormat settings, GMC : No warppoints\nFormat settings, Matrix : Default (H.263)\nMuxing mode : Packed bitstream\nCodec ID : DX50\nCodec ID/Hint : DivX 5\nDuration : 1h 47mn\nBit rate : 1 301 Kbps\nWidth : 720 pixels\nHeight : 304 pixels\nDisplay aspect ratio : 2.35:1\nFrame rate : 25.000 fps\nColor space : YUV\nChroma subsampling : 4:2:0\nBit depth : 8 bits\nScan type : Progressive\nCompression mode : Lossy\nBits/(Pixel*Frame) : 0.238\nStream size : 999 MiB (74%)\nTitle : Video\nWriting library : DivX 6.8.5 (UTC 2009-08-20)\n\n\nAudio\n\nID : 1\nFormat : AC-3\nFormat/Info : Audio Coding 3\nMode extension : CM (complete main)\nFormat settings, Endianness : Big\nCodec ID : 2000\nDuration : 1h 47mn\nBit rate mode : Constant\nBit rate : 448 Kbps\nChannel(s) : 6 channels\nChannel positions : Front: L C R, Side: L R, LFE\nSampling rate : 48.0 KHz\nBit depth : 16 bits\nCompression mode : Lossy\nStream size : 344 MiB (25%)\nAlignment : Split accross interleaves\nInterleave, duration : 40 ms (1.00 video frame)\nInterleave, preload duration : 500 ms\nTitle : Audio\n\n\nSynopsis\n\nBubby is a 35-year-old man who has never set foot outside his mother's dingy apartment in the back of a printing press in an industrial ares of Adelaide-Australia. In addition to beating and sexually abusing him, she confines him to the apartment, telling him that the air outside is poisonous and warning him that he will die if he tries to leave. Bubby eventually escapes, joins up with a rock band, and embarks on a journey of self-discovery and shocking mayhem.\n\nEnjoy !","torrent":{"xt":"urn:btih:07b8d5cdbfa2622774b9a0e3d31397515c379c91","amp;dn":"Bad+Boy+Bubby+1993.480i.DVDRip.H.263+.+NVEE","amp;tr":["udp%3A%2F%2Ftracker.openbittorrent.com%3A80","udp%3A%2F%2Fopen.demonii.com%3A1337","udp%3A%2F%2Ftracker.coppersurfer.tk%3A6969","udp%3A%2F%2Fexodus.desync.com%3A6969"],"infoHash":"07b8d5cdbfa2622774b9a0e3d31397515c379c91","infoHashBuffer":{"type":"Buffer","data":[7,184,213,205,191,162,98,39,116,185,160,227,211,19,151,81,92,55,156,145]},"announce":[],"urlList":[]}}